<?xml version="1.0" standalone="no"?>
<!DOCTYPE svg PUBLIC "-//W3C//DTD SVG 20010904//EN"
 "http://www.w3.org/TR/2001/REC-SVG-20010904/DTD/svg10.dtd">
<svg version="1.0" xmlns="http://www.w3.org/2000/svg"
 width="4501.000000pt" height="4500.000000pt" viewBox="0 0 4501.000000 4500.000000"
 preserveAspectRatio="xMidYMid meet">

<g transform="translate(0.000000,4500.000000) scale(0.100000,-0.100000)"
fill="#000000" stroke="none">
<path d="M22627 34621 c2 -1428 6 -2993 9 -3478 l6 -882 106 2 106 2 116 -847
116 -848 -28 0 c-15 0 -29 -4 -32 -8 -3 -5 518 -605 1157 -1333 639 -729 1298
-1480 1464 -1669 167 -190 297 -346 290 -348 -7 -1 -59 9 -116 22 -57 14 -107
24 -110 22 -13 -9 -323 -56 -520 -81 -915 -113 -2610 -191 -3366 -155 -699 33
-1560 139 -2213 271 l-143 29 -112 -25 c-61 -13 -113 -23 -114 -21 -2 2 649
733 1447 1625 797 891 1450 1623 1450 1626 0 3 -10 5 -21 5 -22 0 -22 2 -16
113 6 120 124 1511 132 1563 l5 31 82 6 c44 4 83 9 86 12 8 7 -28 6797 -36
6876 l-7 66 -1880 -1661 -1880 -1662 -3 -10557 -2 -10557 3905 0 3905 0 0
10558 -1 10557 -1805 1595 c-993 877 -1845 1629 -1892 1671 l-87 76 2 -2596z"/>
<path d="M12928 30542 l-3957 -2597 -1 -7592 0 -7593 2120 0 2120 0 0 245 0
245 -152 0 c-171 0 -199 9 -238 72 -18 30 -20 51 -20 241 l0 207 -33 0 c-44 0
-171 33 -247 63 -225 91 -424 281 -525 501 -19 40 -43 106 -54 147 -31 114
-381 2674 -451 3299 -55 485 7 839 193 1115 126 187 321 316 562 371 62 15
120 19 263 19 l182 0 0 550 c0 662 7 735 91 990 152 461 479 832 919 1044 201
97 382 148 609 171 66 6 551 10 1342 10 l1239 0 0 5545 c0 3050 -1 5545 -2
5545 -2 0 -1784 -1169 -3960 -2598z"/>
<path d="M22638 29718 l-3 -373 -95 -32 c-52 -17 -101 -32 -107 -32 -10 -1
-13 85 -13 399 0 362 -4 425 -23 393 -7 -11 -122 -1362 -116 -1366 6 -5 600
21 606 26 2 3 -37 303 -86 667 -50 364 -91 668 -91 676 0 9 -12 14 -35 14
l-35 0 -2 -372z"/>
<path d="M21060 27059 c-729 -814 -1331 -1488 -1337 -1497 -11 -16 19 -13 240
25 535 90 1052 144 1657 173 279 14 1102 14 1395 0 812 -37 1656 -129 2339
-256 72 -13 131 -22 132 -21 1 1 -59 72 -134 157 -76 86 -679 773 -1341 1528
l-1204 1372 -211 0 -211 0 -1325 -1481z"/>
<path d="M21950 25599 c-450 -9 -825 -33 -1245 -80 -184 -20 -609 -79 -725
-101 l-65 -12 45 -8 c542 -98 1292 -181 1890 -209 576 -27 1887 20 2810 102
229 20 561 57 567 62 1 2 -104 20 -235 40 -758 118 -1544 190 -2217 202 -148
3 -319 7 -380 8 -60 2 -261 0 -445 -4z"/>
<path d="M14280 21863 c-211 -24 -483 -122 -668 -239 -311 -198 -561 -520
-670 -864 -73 -231 -81 -331 -82 -986 l0 -531 77 -38 c148 -73 304 -258 422
-500 197 -403 359 -1041 471 -1850 11 -82 23 -165 26 -182 l5 -33 49 25 c124
63 424 184 610 245 648 216 1275 310 2073 310 l297 0 0 2325 0 2325 -1287 -2
c-709 0 -1304 -3 -1323 -5z"/>
<path d="M12390 19109 c-237 -20 -428 -124 -554 -303 -180 -253 -228 -580
-162 -1106 49 -395 126 -978 236 -1785 203 -1484 191 -1416 267 -1555 100
-184 266 -320 478 -391 l70 -24 2083 -3 2082 -2 0 1470 0 1470 -52 0 c-256 -1
-756 -30 -1043 -61 -858 -91 -1631 -307 -1985 -553 -36 -25 -67 -42 -71 -38
-3 4 -18 106 -33 227 -152 1227 -347 1978 -618 2371 -66 96 -173 198 -241 230
-96 43 -295 67 -457 53z"/>
<path d="M16403 17043 c20 -2 54 -2 75 0 20 2 3 4 -38 4 -41 0 -58 -2 -37 -4z"/>
<path d="M16178 17033 c23 -2 59 -2 80 0 20 2 1 4 -43 4 -44 0 -61 -2 -37 -4z"/>
<path d="M15920 17020 c-162 -16 -380 -43 -376 -47 2 -3 89 5 193 16 103 12
235 25 293 30 88 7 94 8 35 8 -38 0 -104 -3 -145 -7z"/>
<path d="M15483 16963 c9 -2 25 -2 35 0 9 3 1 5 -18 5 -19 0 -27 -2 -17 -5z"/>
<path d="M15423 16953 c9 -2 23 -2 30 0 6 3 -1 5 -18 5 -16 0 -22 -2 -12 -5z"/>
<path d="M15368 16943 c7 -3 16 -2 19 1 4 3 -2 6 -13 5 -11 0 -14 -3 -6 -6z"/>
<path d="M15308 16933 c7 -3 16 -2 19 1 4 3 -2 6 -13 5 -11 0 -14 -3 -6 -6z"/>
<path d="M12970 13590 l0 -170 120 0 120 0 0 25 0 25 1075 0 1075 0 0 -25 0
-25 765 0 765 0 0 170 0 170 -1960 0 -1960 0 0 -170z"/>
<path d="M13390 13005 l0 -245 900 0 900 0 0 245 0 245 -900 0 -900 0 0 -245z"/>
<path d="M15360 13005 l0 -245 765 0 765 0 0 245 0 245 -765 0 -765 0 0 -245z"/>
<path d="M13074 11320 c-623 -66 -1129 -510 -1256 -1103 -28 -131 -30 -350 -5
-479 111 -564 571 -1007 1158 -1114 128 -23 361 -23 494 0 279 49 555 183 758
366 l67 62 0 554 0 554 -595 0 -595 0 0 -245 0 -245 280 0 280 0 -2 -172 -3
-172 -80 -43 c-122 -64 -216 -87 -360 -88 -98 0 -134 4 -195 23 -332 104 -560
408 -560 747 0 216 73 388 230 545 89 89 157 135 260 177 240 96 516 55 737
-111 34 -26 75 -62 93 -82 27 -31 33 -34 48 -22 54 42 452 402 452 408 0 16
-138 134 -224 192 -285 190 -650 283 -982 248z"/>
<path d="M19236 11320 c-546 -62 -1011 -425 -1190 -928 -94 -265 -94 -591 0
-854 144 -401 480 -724 898 -863 150 -50 266 -68 441 -68 361 -1 685 125 967
375 37 34 68 65 68 69 0 8 -431 397 -457 412 -8 5 -26 -8 -49 -33 -139 -154
-372 -250 -574 -237 -179 12 -326 81 -466 221 -102 102 -157 190 -201 321 -24
72 -27 95 -27 225 -1 125 2 155 22 220 141 449 604 678 1002 494 84 -39 205
-127 248 -182 l29 -36 34 28 c99 83 439 391 439 397 0 14 -136 131 -220 188
-166 114 -356 194 -550 231 -117 23 -306 32 -414 20z"/>
<path d="M21856 11319 c-541 -57 -1009 -421 -1190 -927 -94 -263 -94 -591 0
-854 134 -373 439 -685 812 -833 466 -184 979 -113 1385 191 163 122 321 312
411 492 154 307 178 675 65 1003 -101 295 -338 577 -624 742 -172 100 -377
166 -579 186 -122 12 -164 12 -280 0z m339 -609 c205 -64 364 -201 461 -395
67 -136 88 -232 81 -380 -8 -182 -59 -322 -170 -460 -99 -123 -224 -209 -377
-257 -107 -33 -273 -33 -380 0 -253 80 -439 270 -522 532 -19 64 -23 96 -23
215 0 119 4 151 23 215 91 288 308 490 593 550 71 15 235 5 314 -20z"/>
<path d="M14740 9965 l0 -1315 325 0 325 0 2 759 3 760 375 -679 c206 -373
378 -676 381 -672 4 4 172 306 374 672 202 366 371 669 376 675 5 5 9 -295 9
-753 l0 -762 325 0 325 0 0 1315 0 1315 -327 0 -328 -1 -375 -680 c-206 -375
-377 -682 -381 -684 -3 -2 -175 304 -383 681 l-379 684 -323 0 -324 0 0 -1315z"/>
<path d="M24850 9965 l0 -1315 955 0 955 0 0 290 0 290 -630 0 -630 0 0 1025
0 1025 -325 0 -325 0 0 -1315z"/>
<path d="M27130 9965 l0 -1315 325 0 325 0 0 1315 0 1315 -325 0 -325 0 0
-1315z"/>
<path d="M28281 10728 c121 -304 355 -896 521 -1315 l302 -763 365 0 366 0
512 1298 c282 713 516 1305 519 1315 6 16 -15 17 -357 17 l-364 0 -334 -846
c-184 -465 -338 -847 -341 -849 -3 -2 -156 377 -341 843 l-335 847 -366 3
-366 2 219 -552z"/>
<path d="M31150 9965 l0 -1315 1030 0 1030 0 0 290 0 290 -705 0 -705 0 0 235
0 235 640 0 640 0 0 290 0 290 -640 0 -640 0 0 210 0 210 705 0 705 0 0 290 0
290 -1030 0 -1030 0 0 -1315z"/>
<path d="M15693 7976 c-143 -33 -294 -147 -360 -271 -46 -88 -63 -157 -63
-255 0 -208 112 -386 301 -479 160 -79 312 -78 472 2 182 91 297 274 297 476
0 182 -86 344 -238 444 -123 82 -276 113 -409 83z m270 -164 c78 -39 158 -120
195 -199 24 -52 27 -70 27 -163 0 -93 -3 -111 -27 -163 -38 -80 -117 -160
-197 -200 -59 -29 -74 -32 -156 -32 -77 0 -98 4 -148 27 -80 38 -160 117 -200
197 -30 61 -32 72 -32 171 0 93 3 112 27 162 31 68 105 149 166 185 69 41 120
53 204 50 62 -3 89 -10 141 -35z"/>
<path d="M26063 7976 c-158 -36 -299 -149 -373 -299 -42 -84 -44 -92 -48 -196
-6 -138 16 -216 88 -325 105 -156 263 -240 450 -240 137 0 247 37 363 121 l47
35 0 209 0 209 -215 0 -215 0 0 -65 0 -65 140 0 140 0 0 -113 0 -114 -47 -26
c-202 -109 -423 -55 -542 131 -71 113 -81 267 -23 385 39 78 120 158 199 195
51 24 70 27 153 27 109 -1 180 -23 256 -81 l45 -35 54 48 54 48 -32 28 c-119
104 -338 158 -494 123z"/>
<path d="M28633 7976 c-143 -33 -294 -147 -360 -271 -46 -88 -63 -157 -63
-255 0 -208 112 -386 301 -479 160 -79 312 -78 472 2 182 91 297 274 297 476
0 182 -86 344 -238 444 -123 82 -276 113 -409 83z m270 -164 c78 -39 158 -120
195 -199 24 -52 27 -70 27 -163 0 -93 -3 -111 -27 -163 -38 -80 -117 -160
-197 -200 -59 -29 -74 -32 -156 -32 -77 0 -98 4 -148 27 -80 38 -160 117 -200
197 -30 61 -32 72 -32 171 0 93 3 112 27 162 31 68 105 149 166 185 69 41 120
53 204 50 62 -3 89 -10 141 -35z"/>
<path d="M29863 7976 c-143 -33 -294 -147 -360 -271 -46 -88 -63 -157 -63
-255 0 -208 112 -386 301 -479 160 -79 312 -78 472 2 182 91 297 274 297 476
0 182 -86 344 -238 444 -123 82 -276 113 -409 83z m270 -164 c78 -39 158 -120
195 -199 24 -52 27 -70 27 -163 0 -93 -3 -111 -27 -163 -38 -80 -117 -160
-197 -200 -59 -29 -74 -32 -156 -32 -77 0 -98 4 -148 27 -80 38 -160 117 -200
197 -30 61 -32 72 -32 171 0 93 3 112 27 162 31 68 105 149 166 185 69 41 120
53 204 50 62 -3 89 -10 141 -35z"/>
<path d="M13370 7450 l0 -520 75 0 75 0 0 230 0 230 275 0 275 0 0 70 0 70
-275 0 -275 0 0 150 0 150 305 0 305 0 0 70 0 70 -380 0 -380 0 0 -520z"/>
<path d="M14310 7450 l0 -520 75 0 75 0 0 180 0 180 123 -1 122 0 125 -179
125 -180 83 0 c45 0 82 2 82 5 0 2 -54 81 -120 174 -66 94 -123 177 -126 184
-3 9 10 20 41 31 77 30 139 87 177 163 28 58 33 77 33 143 0 66 -5 85 -33 143
-21 42 -48 79 -75 100 -102 83 -169 97 -474 97 l-233 0 0 -520z m514 366 c154
-47 204 -210 97 -317 -55 -56 -113 -69 -303 -69 l-158 0 0 200 0 200 158 0
c108 0 174 -5 206 -14z"/>
<path d="M16550 7450 l0 -520 75 0 75 0 2 370 3 370 173 -318 c95 -175 178
-326 185 -335 10 -14 39 33 194 321 l183 337 0 -372 0 -373 75 0 75 0 0 520 0
520 -74 0 -74 0 -183 -339 c-101 -187 -187 -337 -191 -333 -4 4 -88 156 -186
337 l-179 330 -77 3 -76 3 0 -521z"/>
<path d="M18230 7900 l0 -70 170 0 170 0 0 -450 0 -450 75 0 75 0 0 450 0 450
170 0 170 0 0 70 0 70 -415 0 -415 0 0 -70z"/>
<path d="M19240 7450 l0 -520 75 0 75 0 0 230 0 230 285 0 285 0 0 -230 0
-230 75 0 75 0 0 520 0 520 -75 0 -75 0 0 -220 0 -220 -285 0 -285 0 0 220 0
220 -75 0 -75 0 0 -520z"/>
<path d="M20340 7450 l0 -520 380 0 380 0 0 70 0 70 -305 0 -305 0 0 160 0
160 275 0 275 0 0 70 0 70 -275 0 -275 0 0 150 0 150 305 0 305 0 0 70 0 70
-380 0 -380 0 0 -520z"/>
<path d="M21720 7450 l0 -520 355 0 355 0 0 70 0 70 -280 0 -280 0 0 450 0
450 -75 0 -75 0 0 -520z"/>
<path d="M22600 7450 l0 -520 75 0 75 0 0 520 0 520 -75 0 -75 0 0 -520z"/>
<path d="M22905 7960 c4 -6 105 -239 225 -518 l219 -507 83 -3 84 -3 217 503
c119 277 219 511 223 521 6 16 0 18 -76 15 l-83 -3 -180 -418 c-99 -230 -183
-414 -187 -410 -4 4 -83 183 -174 396 -92 214 -172 399 -178 413 -11 23 -16
24 -95 24 -54 0 -82 -4 -78 -10z"/>
<path d="M24130 7450 l0 -520 75 0 75 0 0 520 0 520 -75 0 -75 0 0 -520z"/>
<path d="M24520 7450 l0 -520 75 0 75 0 2 394 3 395 303 -395 303 -394 74 0
75 0 0 520 0 520 -75 0 -75 0 -2 -394 -3 -395 -303 395 -303 394 -74 0 -75 0
0 -520z"/>
<path d="M27250 7450 l0 -520 75 0 75 0 0 180 0 180 123 -1 122 0 125 -179
125 -180 83 0 c45 0 82 2 82 5 0 2 -54 81 -120 174 -66 94 -123 177 -126 184
-3 9 10 20 41 31 77 30 139 87 177 163 28 58 33 77 33 143 0 66 -5 85 -33 143
-21 42 -48 79 -75 100 -102 83 -169 97 -474 97 l-233 0 0 -520z m514 366 c154
-47 204 -210 97 -317 -55 -56 -113 -69 -303 -69 l-158 0 0 200 0 200 158 0
c108 0 174 -5 206 -14z"/>
<path d="M30720 7450 l0 -520 75 0 75 0 2 370 3 370 173 -318 c95 -175 178
-326 185 -335 10 -14 39 33 194 321 l183 337 0 -372 0 -373 75 0 75 0 0 520 0
520 -74 0 -74 0 -183 -339 c-101 -187 -187 -337 -191 -333 -4 4 -88 156 -186
337 l-179 330 -77 3 -76 3 0 -521z"/>
</g>
</svg>
